<?xml version="1.0" encoding="utf-8"?>
<svg id="master-artboard" viewBox="0 0 467.3943786621094 119.92953491210938" version="1.1" xmlns="http://www.w3.org/2000/svg" x="0px" y="0px" style="enable-background:new 0 0 1400 980;" width="467.3943786621094px" height="119.92953491210938px"><defs><clipPath id="clipPath22" clipPathUnits="userSpaceOnUse"><path id="path20" d="M 0,1000 H 1000 V 0 H 0 Z"/></clipPath></defs><rect id="ee-background" x="0" y="0" width="467.3943786621094" height="119.92953491210938" style="fill: white; fill-opacity: 0; pointer-events: none;"/><g transform="matrix(0.5647238492965699, 0, 0, 0.5647238492965699, -141.5879579066899, -317.1163340594366)"><metadata id="metadata8"/><g transform="matrix(1.3333333,0,0,-1.3333333,0,1333.3333)" id="g10"><g transform="translate(799.6484,530.6855)" id="g12"><path id="path14" style="fill:#0c2ef0;fill-opacity:1;fill-rule:nonzero;stroke:none" d="M 0,0 H -2 V 3.607 L -3.731,1.428 H -4.375 L -6.089,3.607 V 0 h -2.016 v 8.16 h 0.66 l 3.41,-4.232 3.41,4.232 H 0 Z m -10.249,6.214 h -2.445 V 0 h -2 v 6.214 h -2.448 v 1.803 h 6.893 z"/></g><g id="g16"><g clip-path="url(#clipPath22)" id="g18"><g transform="translate(449.4727,523.2822)" id="g24"><path id="path26" style="fill:#0c2ef0;fill-opacity:1;fill-rule:nonzero;stroke:none" d="m 0,0 c -2.98,0 -5.684,-0.55 -8.162,-1.668 -2.462,-1.101 -4.552,-2.607 -6.236,-4.519 -2.85,4.114 -7.126,6.187 -12.811,6.187 -2.51,0 -4.794,-0.421 -6.9,-1.263 -2.088,-0.842 -3.855,-2.025 -5.312,-3.531 v 3.839 H -50.24 v -43.179 h 11.775 v 25.12 c 0,2.559 0.728,4.584 2.186,6.106 1.442,1.506 3.369,2.268 5.75,2.268 2.331,0 4.178,-0.762 5.588,-2.268 1.392,-1.522 2.088,-3.547 2.088,-6.106 v -25.12 h 11.775 v 25.379 c 0,2.381 0.729,4.325 2.219,5.847 1.49,1.506 3.385,2.268 5.718,2.268 2.315,0 4.178,-0.762 5.571,-2.268 1.392,-1.522 2.105,-3.547 2.105,-6.106 v -25.12 h 11.758 v 26.772 c 0,5.232 -1.441,9.443 -4.356,12.601 C 9.037,-1.587 5.053,0 0,0"/></g><g transform="translate(595.3379,490.1777)" id="g28"><path id="path30" style="fill:#0c2ef0;fill-opacity:1;fill-rule:nonzero;stroke:none" d="M 0,0 C -1.28,1.021 -1.911,2.754 -1.911,5.199 V 22.205 H 10.3 v 9.944 H -1.911 v 10.9 h -11.775 v -10.9 h -6.802 v -9.944 h 6.802 V 4.146 c 0,-5.409 1.506,-9.458 4.536,-12.163 3.028,-2.705 7.271,-4.049 12.729,-4.049 2.623,0 5.314,0.34 8.114,1.037 v 9.863 C 8.665,-1.409 6.802,-1.523 6.105,-1.523 3.32,-1.523 1.28,-1.004 0,0"/></g><g transform="translate(683.9971,505.0459)" id="g32"><path id="path34" style="fill:#0c2ef0;fill-opacity:1;fill-rule:nonzero;stroke:none" d="m 0,0 -4.194,1.749 c -1.685,0.648 -2.851,1.231 -3.532,1.798 -0.663,0.551 -0.987,1.231 -0.987,2.041 0,0.988 0.404,1.749 1.214,2.267 0.811,0.518 1.944,0.777 3.401,0.777 3.547,0 6.771,-1.36 9.67,-4.097 l 5.945,7.239 c -3.905,4.374 -9.072,6.544 -15.534,6.544 -4.696,0 -8.535,-1.15 -11.466,-3.45 -2.932,-2.284 -4.406,-5.474 -4.406,-9.539 0,-3.208 0.972,-5.782 2.931,-7.759 1.944,-1.975 4.893,-3.789 8.845,-5.409 l 4.632,-1.928 c 1.619,-0.696 2.768,-1.279 3.432,-1.781 0.665,-0.486 1.005,-1.215 1.005,-2.138 0,-1.167 -0.518,-2.041 -1.571,-2.656 -1.036,-0.615 -2.349,-0.923 -3.919,-0.923 -4.309,0 -8.342,1.96 -12.115,5.847 l -5.944,-7.144 c 1.977,-2.623 4.519,-4.664 7.595,-6.153 3.078,-1.474 6.512,-2.22 10.285,-2.22 4.892,0 8.908,1.216 12.082,3.661 3.158,2.446 4.745,5.815 4.745,10.107 0,3.207 -0.97,5.782 -2.915,7.725 C 7.255,-3.498 4.179,-1.684 0,0"/></g><g transform="translate(745.0498,522.3271)" id="g36"><path id="path38" style="fill:#0c2ef0;fill-opacity:1;fill-rule:nonzero;stroke:none" d="m 0,0 h -13.945 l -15.531,-18.399 v 40.62 h -11.776 v -65.4 h 11.776 v 23.905 l 17.362,-23.905 H 1.313 l -17.525,24.068 z"/></g><g transform="translate(768.6797,521.355)" id="g40"><path id="path42" style="fill:#0c2ef0;fill-opacity:1;fill-rule:nonzero;stroke:none" d="m 0,0 c -2.041,-0.988 -3.774,-2.381 -5.231,-4.179 v 5.151 h -10.82 v -43.179 h 11.776 v 21.541 c 0,3.725 1.051,6.527 3.141,8.422 2.09,1.878 4.924,2.834 8.455,2.834 h 3.142 V 0.972 C 9.362,1.312 8.082,1.49 6.625,1.49 4.244,1.49 2.041,0.988 0,0"/></g><g transform="translate(506.2725,488.834)" id="g44"><path id="path46" style="fill:#0c2ef0;fill-opacity:1;fill-rule:nonzero;stroke:none" d="m 0,0 h -11.159 -0.13 c -3.029,0 -5.587,1.035 -7.709,3.094 -2.122,2.073 -3.191,5.019 -3.191,8.859 0,3.887 1.086,6.835 3.223,8.842 2.154,2.009 4.714,3.013 7.677,3.013 3.207,0 5.864,-1.085 7.985,-3.271 2.008,-2.075 3.061,-4.778 3.158,-8.147 l 0.146,0 z m -11.159,34.449 c -12.179,0 -22.059,-9.88 -22.059,-22.059 0,-12.197 9.88,-22.076 22.059,-22.076 H 10.916 V 12.39 c 0,12.179 -9.879,22.059 -22.075,22.059"/></g><g transform="translate(556.5801,492.1045)" id="g48"><path id="path50" style="fill:#0c2ef0;fill-opacity:1;fill-rule:nonzero;stroke:none" d="m 0,0 c -2.153,-2.186 -4.794,-3.271 -7.936,-3.271 -3.028,0 -5.587,1.037 -7.709,3.093 -2.104,2.055 -3.168,4.973 -3.187,8.763 v 0.193 c 0.019,3.838 1.101,6.755 3.22,8.747 2.154,2.008 4.713,3.012 7.676,3.012 3.207,0 5.864,-1.085 7.986,-3.271 C 2.172,15.08 3.225,12.196 3.225,8.584 3.225,5.038 2.154,2.171 0,0 m -7.806,31.177 c -12.179,0 -22.058,-9.879 -22.058,-22.058 V 9.112 -28.65 h 11.032 v 18.655 c 3.238,-1.893 7.012,-2.961 11.026,-2.961 12.196,0 22.058,9.88 22.058,22.075 0,12.179 -9.862,22.058 -22.058,22.058"/></g><g transform="translate(643.6191,488.834)" id="g52"><path id="path54" style="fill:#0c2ef0;fill-opacity:1;fill-rule:nonzero;stroke:none" d="m 0,0 h -11.029 -0.13 c -3.028,0 -5.587,1.035 -7.709,3.094 -2.12,2.073 -3.191,5.019 -3.191,8.859 0,3.887 1.086,6.835 3.224,8.842 2.154,2.009 4.712,3.013 7.676,3.013 3.207,0 5.863,-1.085 7.985,-3.271 2.008,-2.075 3.061,-4.778 3.158,-8.147 C 0,12.21 0,12.034 0,11.855 Z m -11.029,34.449 c -12.195,0 -22.075,-9.88 -22.075,-22.059 0,-12.197 9.88,-22.076 22.075,-22.076 H 11.03 V 12.39 c 0,12.179 -9.88,22.059 -22.059,22.059"/></g><g transform="translate(206.0146,500.0308)" id="g56"><path id="path58" style="fill:#0c2ef0;fill-opacity:1;fill-rule:nonzero;stroke:none" d="m 0,0 7.496,-4.336 v 16.614 c 0,1.475 0.788,2.839 2.067,3.577 l 76.678,44.262 -5.245,3.035 c -5.122,2.954 -11.42,2.954 -16.522,0 L 0,25.938 C -3.511,23.915 -5.659,20.177 -5.659,16.129 V 9.81 C -5.659,5.762 -3.511,2.024 0,0"/></g><g transform="translate(250.9937,524.792)" id="g60"><path id="path62" style="fill:#0c2ef0;fill-opacity:1;fill-rule:nonzero;stroke:none" d="m 0,0 -25.424,-14.669 c -1.277,-0.737 -2.064,-2.099 -2.066,-3.574 l -0.018,-16.596 47.003,-27.136 c 5.101,-2.953 11.399,-2.953 16.521,0 l 18.256,10.533 v 17.729 c 0,1.475 -0.787,2.839 -2.065,3.577 z"/></g><g transform="translate(281.041,518.9893)" id="g64"><path id="path66" style="fill:#0c2ef0;fill-opacity:1;fill-rule:nonzero;stroke:none" d="m 0,0 19.454,11.234 1.24,0.723 8.756,5.06 1.238,0.702 10.574,6.113 L 21.21,35.397 -20.052,11.585 Z"/></g><g transform="translate(336.1807,491.1924)" id="g68"><path id="path70" style="fill:#0c2ef0;fill-opacity:1;fill-rule:nonzero;stroke:none" d="m 0,0 v 17.48 c 0,1.477 -0.787,2.841 -2.066,3.579 L -24.451,33.972 -25.69,33.269 -45.164,22.035 -23.006,9.246 c 1.278,-0.737 2.065,-2.101 2.065,-3.577 v -17.75 z"/></g><g transform="translate(351.0918,526.1968)" id="g72"><path id="path74" style="fill:#0c2ef0;fill-opacity:1;fill-rule:nonzero;stroke:none" d="M 0,0 -18.793,10.842 -29.367,4.749 -7.001,-8.163 c 1.278,-0.738 2.065,-2.101 2.065,-3.577 v -17.503 l 4.959,2.864 c 3.5,2.021 5.656,5.754 5.656,9.796 v 6.75 C 5.679,-5.776 3.514,-2.028 0,0"/></g><g transform="translate(351.0947,487.3574)" id="g76"><path id="path78" style="fill:#0c2ef0;fill-opacity:1;fill-rule:nonzero;stroke:none" d="m 0,0 -64.098,-36.994 c -5.108,-2.971 -11.425,-2.971 -16.508,0 l -64.475,37.221 c -2.768,1.585 -4.681,4.252 -5.361,7.272 -0.201,-0.83 -0.302,-1.686 -0.302,-2.541 v -2.16 -4.157 -2.16 c 0,-4.051 2.139,-7.775 5.663,-9.79 l 64.475,-37.219 c 5.083,-2.97 11.4,-2.97 16.508,0 L 0,-13.535 c 3.499,2.014 5.663,5.763 5.663,9.791 v 2.159 4.609 2.16 c 0,0.781 -0.076,1.56 -0.252,2.315 C 4.782,4.379 2.819,1.609 0,0"/></g></g></g></g></g></svg>