<?xml version="1.0" encoding="utf-8"?>
<svg id="master-artboard" viewBox="0 0 467.3943786621094 305.492919921875" version="1.1" xmlns="http://www.w3.org/2000/svg" x="0px" y="0px" style="enable-background:new 0 0 1400 980;" width="467.3943786621094px" height="305.492919921875px"><rect id="ee-background" x="0" y="0" width="467.3943786621094" height="305.492919921875" style="fill: white; fill-opacity: 0; pointer-events: none;"/><defs><clipPath id="clipPath18" clipPathUnits="userSpaceOnUse"><path id="path16" d="M 0,1000 H 1000 V 0 H 0 Z"/></clipPath></defs><g transform="matrix(0.7350000739097595, 0, 0, 0.7350000739097595, -266.47889709472656, -337.60565185546875)"><metadata id="metadata8"/><g transform="matrix(1.3333333,0,0,-1.3333333,0,1333.3333)" id="g10"><g id="g12"><g clip-path="url(#clipPath18)" id="g14"><g transform="translate(395.1064,553.6948)" id="g20"><path id="path22" style="fill:#0c2ef0;fill-opacity:1;fill-rule:nonzero;stroke:none" d="m 0,0 10.839,-6.27 v 24.022 c 0,2.134 1.138,4.106 2.987,5.172 l 110.867,63.998 -7.583,4.388 c -7.406,4.271 -16.512,4.271 -23.888,0 L 0,37.504 C -5.076,34.578 -8.182,29.173 -8.182,23.32 V 14.183 C -8.182,8.331 -5.076,2.926 0,0"/></g><g transform="translate(460.1411,589.4966)" id="g24"><path id="path26" style="fill:#0c2ef0;fill-opacity:1;fill-rule:nonzero;stroke:none" d="m 0,0 -36.76,-21.21 c -1.846,-1.066 -2.985,-3.035 -2.987,-5.167 l -0.027,-23.996 67.962,-39.236 c 7.375,-4.269 16.481,-4.269 23.887,0 l 26.396,15.229 v 25.635 c 0,2.133 -1.139,4.105 -2.986,5.172 z"/></g><g transform="translate(503.5859,581.1064)" id="g28"><path id="path30" style="fill:#0c2ef0;fill-opacity:1;fill-rule:nonzero;stroke:none" d="m 0,0 28.128,16.243 1.792,1.045 12.66,7.316 1.791,1.015 15.289,8.839 -28.994,16.721 -59.659,-34.428 z"/></g><g transform="translate(583.3115,540.915)" id="g32"><path id="path34" style="fill:#0c2ef0;fill-opacity:1;fill-rule:nonzero;stroke:none" d="m 0,0 v 25.275 c 0,2.135 -1.139,4.107 -2.987,5.173 L -35.354,49.119 -37.146,48.103 -65.303,31.86 -33.265,13.369 c 1.849,-1.066 2.987,-3.038 2.987,-5.172 v -25.664 z"/></g><g transform="translate(604.8701,591.5273)" id="g36"><path id="path38" style="fill:#0c2ef0;fill-opacity:1;fill-rule:nonzero;stroke:none" d="m 0,0 -27.173,15.676 -15.288,-8.809 32.339,-18.67 c 1.848,-1.067 2.985,-3.038 2.985,-5.172 v -25.306 l 7.171,4.14 c 5.06,2.922 8.177,8.321 8.177,14.164 v 9.76 C 8.211,-8.352 5.081,-2.932 0,0"/></g><g transform="translate(604.875,535.3701)" id="g40"><path id="path42" style="fill:#0c2ef0;fill-opacity:1;fill-rule:nonzero;stroke:none" d="m 0,0 -92.677,-53.488 c -7.386,-4.294 -16.519,-4.294 -23.869,0 L -209.77,0.328 c -4.002,2.292 -6.767,6.149 -7.751,10.515 -0.29,-1.201 -0.436,-2.437 -0.436,-3.675 V 4.046 -1.965 -5.087 c 0,-5.858 3.093,-11.243 8.187,-14.154 l 93.224,-53.817 c 7.35,-4.293 16.483,-4.293 23.869,0 L 0,-19.57 c 5.059,2.911 8.188,8.333 8.188,14.156 v 3.122 6.666 3.122 c 0,1.128 -0.11,2.255 -0.364,3.347 C 6.914,6.331 4.076,2.329 0,0"/></g><g transform="translate(739.6758,428.2852)" id="g44"><path id="path46" style="fill:#0c2ef0;fill-opacity:1;fill-rule:nonzero;stroke:none" d="m 0,0 h -2.275 v 4.104 l -1.97,-2.478 h -0.732 l -1.95,2.478 V 0 h -2.294 v 9.284 h 0.75 L -4.59,4.47 -0.711,9.284 H 0 Z m -11.659,7.068 h -2.782 V 0 h -2.276 v 7.068 h -2.784 v 2.054 h 7.842 z"/></g><g transform="translate(341.312,419.8633)" id="g48"><path id="path50" style="fill:#0c2ef0;fill-opacity:1;fill-rule:nonzero;stroke:none" d="m 0,0 c -3.39,0 -6.466,-0.624 -9.285,-1.896 -2.801,-1.253 -5.178,-2.966 -7.094,-5.142 C -19.622,-2.357 -24.486,0 -30.953,0 c -2.855,0 -5.454,-0.478 -7.85,-1.437 -2.375,-0.957 -4.385,-2.302 -6.043,-4.015 v 4.365 h -12.308 v -49.119 h 13.396 v 28.576 c 0,2.911 0.828,5.214 2.487,6.944 1.64,1.715 3.832,2.582 6.541,2.582 2.651,0 4.753,-0.867 6.357,-2.582 1.584,-1.73 2.375,-4.033 2.375,-6.944 v -28.576 h 13.395 v 28.871 c 0,2.709 0.83,4.919 2.525,6.649 1.695,1.715 3.85,2.582 6.504,2.582 2.634,0 4.754,-0.867 6.338,-2.582 1.584,-1.73 2.396,-4.033 2.396,-6.944 v -28.576 h 13.375 v 30.456 c 0,5.952 -1.639,10.743 -4.955,14.335 C 10.281,-1.804 5.749,0 0,0"/></g><g transform="translate(507.249,382.2041)" id="g52"><path id="path54" style="fill:#0c2ef0;fill-opacity:1;fill-rule:nonzero;stroke:none" d="M 0,0 C -1.456,1.163 -2.173,3.134 -2.173,5.915 V 25.261 H 11.719 V 36.572 H -2.173 V 48.973 H -15.568 V 36.572 h -7.739 V 25.261 h 7.739 V 4.718 c 0,-6.155 1.713,-10.761 5.16,-13.839 3.444,-3.076 8.271,-4.606 14.481,-4.606 2.984,0 6.045,0.387 9.23,1.18 V -1.326 C 9.858,-1.604 7.738,-1.732 6.947,-1.732 3.778,-1.732 1.457,-1.142 0,0"/></g><g transform="translate(608.1094,399.1182)" id="g56"><path id="path58" style="fill:#0c2ef0;fill-opacity:1;fill-rule:nonzero;stroke:none" d="m 0,0 -4.771,1.99 c -1.917,0.737 -3.244,1.4 -4.018,2.044 -0.754,0.627 -1.122,1.402 -1.122,2.322 0,1.125 0.459,1.991 1.38,2.579 0.922,0.59 2.213,0.885 3.87,0.885 4.034,0 7.702,-1.548 11,-4.661 l 6.763,8.236 C 8.66,18.37 2.782,20.839 -4.57,20.839 c -5.341,0 -9.709,-1.31 -13.043,-3.926 -3.336,-2.599 -5.013,-6.226 -5.013,-10.85 0,-3.651 1.106,-6.579 3.335,-8.829 2.212,-2.246 5.565,-4.309 10.062,-6.152 l 5.268,-2.192 c 1.843,-0.793 3.15,-1.456 3.905,-2.027 0.757,-0.553 1.144,-1.383 1.144,-2.432 0,-1.327 -0.591,-2.323 -1.788,-3.022 -1.178,-0.701 -2.671,-1.049 -4.458,-1.049 -4.902,0 -9.489,2.229 -13.782,6.651 l -6.762,-8.127 c 2.249,-2.984 5.14,-5.306 8.64,-7 3.501,-1.678 7.408,-2.525 11.7,-2.525 5.565,0 10.134,1.382 13.746,4.164 3.593,2.782 5.397,6.616 5.397,11.498 0,3.649 -1.104,6.578 -3.316,8.788 C 8.254,-3.979 4.754,-1.916 0,0"/></g><g transform="translate(677.5635,418.7764)" id="g60"><path id="path62" style="fill:#0c2ef0;fill-opacity:1;fill-rule:nonzero;stroke:none" d="m 0,0 h -15.864 l -17.667,-20.931 v 46.21 H -46.93 v -74.398 h 13.399 v 27.193 l 19.75,-27.193 H 1.493 l -19.935,27.378 z"/></g><g transform="translate(704.4443,417.6719)" id="g64"><path id="path66" style="fill:#0c2ef0;fill-opacity:1;fill-rule:nonzero;stroke:none" d="m 0,0 c -2.321,-1.123 -4.293,-2.709 -5.951,-4.754 v 5.858 h -12.307 v -49.119 h 13.396 v 24.506 c 0,4.237 1.195,7.424 3.573,9.58 2.378,2.136 5.602,3.224 9.618,3.224 h 3.574 V 1.104 C 10.651,1.491 9.194,1.695 7.537,1.695 4.828,1.695 2.322,1.124 0,0"/></g><g transform="translate(405.9282,380.6758)" id="g68"><path id="path70" style="fill:#0c2ef0;fill-opacity:1;fill-rule:nonzero;stroke:none" d="m 0,0 h -12.695 -0.148 c -3.446,0 -6.355,1.178 -8.769,3.52 -2.415,2.356 -3.631,5.709 -3.631,10.079 0,4.421 1.236,7.773 3.667,10.058 2.45,2.283 5.363,3.426 8.733,3.426 3.649,0 6.672,-1.233 9.085,-3.721 2.283,-2.36 3.481,-5.435 3.591,-9.268 l 0.167,0 z m -12.695,39.188 c -13.855,0 -25.095,-11.239 -25.095,-25.094 0,-13.874 11.24,-25.113 25.095,-25.113 h 25.113 v 25.113 c 0,13.855 -11.238,25.094 -25.113,25.094"/></g><g transform="translate(463.1587,384.3945)" id="g72"><path id="path74" style="fill:#0c2ef0;fill-opacity:1;fill-rule:nonzero;stroke:none" d="m 0,0 c -2.45,-2.485 -5.454,-3.719 -9.028,-3.719 -3.445,0 -6.356,1.178 -8.769,3.518 -2.395,2.338 -3.604,5.657 -3.627,9.97 v 0.219 c 0.023,4.366 1.252,7.684 3.663,9.95 2.451,2.284 5.362,3.426 8.733,3.426 3.649,0 6.671,-1.233 9.085,-3.721 C 2.471,17.156 3.668,13.877 3.668,9.769 3.668,5.733 2.45,2.472 0,0 m -8.88,35.469 c -13.856,0 -25.094,-11.239 -25.094,-25.094 v -0.007 -42.96 h 12.55 v 21.223 c 3.684,-2.152 7.977,-3.368 12.544,-3.368 13.874,0 25.093,11.238 25.093,25.112 0,13.855 -11.219,25.094 -25.093,25.094"/></g><g transform="translate(562.1748,380.6758)" id="g76"><path id="path78" style="fill:#0c2ef0;fill-opacity:1;fill-rule:nonzero;stroke:none" d="m 0,0 h -12.546 -0.148 c -3.445,0 -6.357,1.178 -8.771,3.52 -2.412,2.356 -3.629,5.709 -3.629,10.079 0,4.421 1.237,7.773 3.667,10.058 2.451,2.283 5.361,3.426 8.733,3.426 3.647,0 6.67,-1.233 9.084,-3.721 2.284,-2.36 3.481,-5.435 3.593,-9.268 C 0,13.892 0,13.689 0,13.487 Z m -12.546,39.188 c -13.873,0 -25.113,-11.239 -25.113,-25.094 0,-13.874 11.24,-25.113 25.113,-25.113 h 25.094 v 25.113 c 0,13.855 -11.238,25.094 -25.094,25.094"/></g></g></g></g></g></svg>