<?xml version="1.0" encoding="UTF-8" standalone="no" ?>
<!DOCTYPE svg PUBLIC "-//W3C//DTD SVG 1.1//EN" "http://www.w3.org/Graphics/SVG/1.1/DTD/svg11.dtd">
<svg xmlns="http://www.w3.org/2000/svg" xmlns:xlink="http://www.w3.org/1999/xlink" version="1.1" width="500" height="500" viewBox="0 0 500 500" xml:space="preserve">
<desc>Created with Fabric.js 3.6.6</desc>
<defs>
</defs>
<g transform="matrix(1 0 0 1 250.41 250.3)"  >
<g style=""   >
		<g transform="matrix(2.13 0 0 -2.13 -99.32 -93.9)" clip-path="url(#CLIPPATH_11)"  >
<clipPath id="CLIPPATH_11" >
	<path transform="matrix(1 0 0 1 46.64 -97.82) translate(-500, -500)" d="M 0 1000 H 1000 V 0 H 0 Z" stroke-linecap="round" />
</clipPath>
<path style="stroke: none; stroke-width: 1; stroke-dasharray: none; stroke-linecap: butt; stroke-dashoffset: 0; stroke-linejoin: miter; stroke-miterlimit: 4; fill: rgb(255,255,255); fill-rule: nonzero; opacity: 1;"  transform=" translate(-58.26, -44.12)" d="m 0 0 l 10.839 -6.27 v 24.022 c 0 2.134 1.138 4.106 2.987 5.172 l 110.867 63.998 l -7.583 4.388 c -7.406 4.271 -16.512 4.271 -23.888 0 L 0 37.504 C -5.076 34.578 -8.182 29.173 -8.182 23.32 V 14.183 C -8.182 8.331 -5.076 2.926 0 0" stroke-linecap="round" />
</g>
		<g transform="matrix(2.13 0 0 -2.13 -43.78 22.46)" clip-path="url(#CLIPPATH_12)"  >
<clipPath id="CLIPPATH_12" >
	<path transform="matrix(1 0 0 1 20.51 -43.09) translate(-500, -500)" d="M 0 1000 H 1000 V 0 H 0 Z" stroke-linecap="round" />
</clipPath>
<path style="stroke: none; stroke-width: 1; stroke-dasharray: none; stroke-linecap: butt; stroke-dashoffset: 0; stroke-linejoin: miter; stroke-miterlimit: 4; fill: rgb(255,255,255); fill-rule: nonzero; opacity: 1;"  transform=" translate(-19.35, 46.41)" d="m 0 0 l -36.76 -21.21 c -1.846 -1.066 -2.985 -3.035 -2.987 -5.167 l -0.027 -23.996 l 67.962 -39.236 c 7.375 -4.269 16.481 -4.269 23.887 0 l 26.396 15.229 v 25.635 c 0 2.133 -1.139 4.105 -2.986 5.172 z" stroke-linecap="round" />
</g>
		<g transform="matrix(2.13 0 0 -2.13 40.02 -112.87)" clip-path="url(#CLIPPATH_13)"  >
<clipPath id="CLIPPATH_13" >
	<path transform="matrix(1 0 0 1 -18.92 -106.7) translate(-500, -500)" d="M 0 1000 H 1000 V 0 H 0 Z" stroke-linecap="round" />
</clipPath>
<path style="stroke: none; stroke-width: 1; stroke-dasharray: none; stroke-linecap: butt; stroke-dashoffset: 0; stroke-linejoin: miter; stroke-miterlimit: 4; fill: rgb(255,255,255); fill-rule: nonzero; opacity: 1;"  transform=" translate(-15.33, -25.59)" d="m 0 0 l 28.128 16.243 l 1.792 1.045 l 12.66 7.316 l 1.791 1.015 l 15.289 8.839 l -28.994 16.721 l -59.659 -34.428 z" stroke-linecap="round" />
</g>
		<g transform="matrix(2.13 0 0 -2.13 107.48 -6.61)" clip-path="url(#CLIPPATH_14)"  >
<clipPath id="CLIPPATH_14" >
	<path transform="matrix(1 0 0 1 -50.66 -56.74) translate(-500, -500)" d="M 0 1000 H 1000 V 0 H 0 Z" stroke-linecap="round" />
</clipPath>
<path style="stroke: none; stroke-width: 1; stroke-dasharray: none; stroke-linecap: butt; stroke-dashoffset: 0; stroke-linejoin: miter; stroke-miterlimit: 4; fill: rgb(255,255,255); fill-rule: nonzero; opacity: 1;"  transform=" translate(32.65, -15.83)" d="m 0 0 v 25.275 c 0 2.135 -1.139 4.107 -2.987 5.173 L -35.354 49.119 L -37.146 48.103 L -65.303 31.86 L -33.265 13.369 c 1.849 -1.066 2.987 -3.038 2.987 -5.172 v -25.664 z" stroke-linecap="round" />
</g>
		<g transform="matrix(2.13 0 0 -2.13 186.32 -52.31)" clip-path="url(#CLIPPATH_15)"  >
<clipPath id="CLIPPATH_15" >
	<path transform="matrix(1 0 0 1 -87.75 -78.22) translate(-500, -500)" d="M 0 1000 H 1000 V 0 H 0 Z" stroke-linecap="round" />
</clipPath>
<path style="stroke: none; stroke-width: 1; stroke-dasharray: none; stroke-linecap: butt; stroke-dashoffset: 0; stroke-linejoin: miter; stroke-miterlimit: 4; fill: rgb(255,255,255); fill-rule: nonzero; opacity: 1;"  transform=" translate(17.13, 13.3)" d="m 0 0 l -27.173 15.676 l -15.288 -8.809 l 32.339 -18.67 c 1.848 -1.067 2.985 -3.038 2.985 -5.172 v -25.306 l 7.171 4.14 c 5.06 2.922 8.177 8.321 8.177 14.164 v 9.76 C 8.211 -8.352 5.081 -2.932 0 0" stroke-linecap="round" />
</g>
		<g transform="matrix(2.13 0 0 -2.13 0 108.45)" clip-path="url(#CLIPPATH_16)"  >
<clipPath id="CLIPPATH_16" >
	<path transform="matrix(1 0 0 1 0.01 -2.65) translate(-500, -500)" d="M 0 1000 H 1000 V 0 H 0 Z" stroke-linecap="round" />
</clipPath>
<path style="stroke: none; stroke-width: 1; stroke-dasharray: none; stroke-linecap: butt; stroke-dashoffset: 0; stroke-linejoin: miter; stroke-miterlimit: 4; fill: rgb(255,255,255); fill-rule: nonzero; opacity: 1;"  transform=" translate(104.88, 32.72)" d="m 0 0 l -92.677 -53.488 c -7.386 -4.294 -16.519 -4.294 -23.869 0 L -209.77 0.328 c -4.002 2.292 -6.767 6.149 -7.751 10.515 c -0.29 -1.201 -0.436 -2.437 -0.436 -3.675 V 4.046 V -1.965 V -5.087 c 0 -5.858 3.093 -11.243 8.187 -14.154 l 93.224 -53.817 c 7.35 -4.293 16.483 -4.293 23.869 0 L 0 -19.57 c 5.059 2.911 8.188 8.333 8.188 14.156 v 3.122 v 6.666 v 3.122 c 0 1.128 -0.11 2.255 -0.364 3.347 C 6.914 6.331 4.076 2.329 0 0" stroke-linecap="round" />
</g>
</g>
</g>
</svg>